HIERARCHY
ROOT Hips
{
	OFFSET -3.958830 18.904000 13.208200
	CHANNELS 6 Xposition Yposition Zposition Zrotation Yrotation Xrotation 
	JOINT LHipJoint
	{
		OFFSET 0.000000 0.000000 0.000000
		CHANNELS 3 Zrotation Yrotation Xrotation
		JOINT LeftUpLeg
		{
			OFFSET 1.800000 -1.400000 0.085000
			CHANNELS 3 Zrotation Yrotation Xrotation
			JOINT LeftLeg
			{
				OFFSET 2.215000 -6.000000 0.000000
				CHANNELS 3 Zrotation Yrotation Xrotation
				JOINT LeftFoot
				{
					OFFSET 2.500000 -6.900000 0.000000
					CHANNELS 3 Zrotation Yrotation Xrotation
					JOINT LeftToeBase
					{
						OFFSET 0.200000 -0.500000 1.950000
						CHANNELS 3 Zrotation Yrotation Xrotation
						End Site
						{
							OFFSET 0.000000 0.000000 0.000000
						}
					}
				}
			}
		}
	}
	JOINT RHipJoint
	{
		OFFSET 0.000000 0.000000 0.000000
		CHANNELS 3 Zrotation Yrotation Xrotation
		JOINT RightUpLeg
		{
			OFFSET -1.800000 -1.400000 0.085000
			CHANNELS 3 Zrotation Yrotation Xrotation
			JOINT RightLeg
			{
				OFFSET -2.215000 -6.000000 0.000000
				CHANNELS 3 Zrotation Yrotation Xrotation
				JOINT RightFoot
				{
					OFFSET -2.500000 -6.900000 0.000000
					CHANNELS 3 Zrotation Yrotation Xrotation
					JOINT RightToeBase
					{
						OFFSET -0.200000 -0.500000 1.950000
						CHANNELS 3 Zrotation Yrotation Xrotation
						End Site
						{
							OFFSET 0.000000 0.000000 0.000000
						}
					}
				}
			}
		}
	}
	JOINT LowerBack
	{
		OFFSET 0.000000 0.000000 0.000000
		CHANNELS 3 Zrotation Yrotation Xrotation
		JOINT Spine
		{
			OFFSET -0.087000 1.940000 -0.288900
			CHANNELS 3 Zrotation Yrotation Xrotation
			JOINT Spine1
			{
				OFFSET 0.000000 1.950000 0.060000
				CHANNELS 3 Zrotation Yrotation Xrotation
				JOINT Neck
				{
					OFFSET 0.000000 0.000000 0.000000
					CHANNELS 3 Zrotation Yrotation Xrotation
					JOINT Neck1
					{
						OFFSET 0.000000 1.600000 0.340000
						CHANNELS 3 Zrotation Yrotation Xrotation
						JOINT Head
						{
							OFFSET 0.000000 1.667000 -0.240000
							CHANNELS 3 Zrotation Yrotation Xrotation
							End Site
							{
								OFFSET 0.000000 0.000000 0.000000
							}
						}
					}
				}
				JOINT LeftShoulder
				{
					OFFSET 0.000000 0.000000 0.000000
					CHANNELS 3 Zrotation Yrotation Xrotation
					JOINT LeftArm
					{
						OFFSET 2.700000 1.550000 -0.730000
						CHANNELS 3 Zrotation Yrotation Xrotation
						JOINT LeftForeArm
						{
							OFFSET 5.450000 0.000000 0.000000
							CHANNELS 3 Zrotation Yrotation Xrotation
							JOINT LeftHand
							{
								OFFSET 3.450000 0.000000 0.000000
								CHANNELS 3 Zrotation Yrotation Xrotation
								JOINT LeftHandIndex1
								{
									OFFSET 0.750000 0.000000 0.000000
									CHANNELS 3 Zrotation Yrotation Xrotation
									End Site
									{
										OFFSET 0.000000 0.000000 0.000000
									}
								}
							}
						}
					}
				}
				JOINT RightShoulder
				{
					OFFSET 0.000000 0.000000 0.000000
					CHANNELS 3 Zrotation Yrotation Xrotation
					JOINT RightArm
					{
						OFFSET -2.700000 1.550000 -0.730000
						CHANNELS 3 Zrotation Yrotation Xrotation
						JOINT RightForeArm
						{
							OFFSET -5.450000 0.000000 0.000000
							CHANNELS 3 Zrotation Yrotation Xrotation
							JOINT RightHand
							{
								OFFSET -3.450000 0.000000 0.000000
								CHANNELS 3 Zrotation Yrotation Xrotation
								JOINT RightHandIndex1
								{
									OFFSET -0.750000 0.000000 0.000000
									CHANNELS 3 Zrotation Yrotation Xrotation
									End Site
									{
										OFFSET 0.000000 0.000000 0.000000
									}
								}
							}
						}
					}
				}
			}
		}
	}
}
MOTION
Frames: 11
Frame Time: 0.016667
0.489710 17.137460 -0.586690 -2.047524 28.695621 3.543524 -15.180925 12.901894 3.335046 8.179014 -2.408132 -15.617551 -5.322689 3.053771 0.249238 -0.421762 3.132702 3.532267 0.370880 0.372330 0.051760 18.095218 -11.587566 2.302542 -13.389502 1.146248 -22.060535 3.282780 -6.342449 28.371179 -0.019357 -4.418649 2.676921 0.426950 0.290200 0.074790 -4.032961 -0.538041 -7.817613 7.770903 0.942538 15.971721 -5.877085 3.263226 17.051980 2.862227 1.819382 -9.614104 0.431343 -8.098514 35.197078 2.306860 -11.216170 -5.221140 -16.952550 -41.234777 4.695706 -17.526050 -50.137153 7.065590 30.901986 -44.714503 -11.672059 -3.813614 2.862057 -0.115640 0.196570 -0.196850 0.200730 11.191028 40.879667 4.661727 6.944032 38.523377 -0.536796 -18.392538 35.534202 -5.406987 2.207301 -1.607902 -0.064570 0.236030 -0.033020 0.070750 
0.464580 17.124610 -0.589820 -2.058803 28.533415 3.648022 -15.177515 12.850002 3.374510 8.483292 -2.432823 -15.562571 -5.521613 2.981948 -0.409619 -0.424301 3.159181 3.514934 0.392090 0.395840 0.073600 18.099818 -11.594847 2.289215 -13.037685 1.167161 -21.821435 2.999727 -6.049750 27.519450 -0.012348 -4.275208 2.725507 0.441390 0.270270 0.077540 -4.034231 -0.454799 -7.838115 7.862483 1.126027 16.061371 -6.001445 3.522942 17.092994 3.101379 1.825656 -9.569484 0.499185 -8.169928 35.312684 2.000800 -11.097520 -5.755250 -16.962566 -41.465533 4.694836 -17.152352 -50.115970 6.734033 30.208430 -43.960630 -11.258114 -3.809384 2.875520 -0.104700 0.187450 -0.181930 0.198080 10.750224 41.328091 4.296983 6.574077 38.785788 -0.252786 -17.112177 33.620753 -4.810157 2.235244 -1.616235 -0.059710 0.234590 -0.041540 0.062710 
0.417900 17.089520 -0.572980 -1.723285 28.071117 4.017506 -15.217048 12.805972 3.467971 8.677772 -2.470255 -15.039749 -5.667767 2.778264 -2.130381 -0.399461 3.241303 3.497715 0.391970 0.397830 0.069930 18.067105 -11.561186 2.225098 -12.495200 1.001124 -20.636995 2.558565 -5.413543 24.866568 0.032192 -3.949470 2.860061 0.446490 0.281280 0.077880 -3.887000 -0.490099 -7.854358 6.800885 1.729794 15.727143 -5.212532 4.024360 17.453027 2.946886 2.267270 -9.633298 1.284170 -8.071917 35.593115 2.131490 -10.834640 -5.373840 -17.036101 -42.435917 4.497297 -16.686432 -50.975229 6.996749 28.151430 -41.704256 -9.960314 -3.834754 2.912827 -0.111240 0.197780 -0.188630 0.202800 11.211877 42.261623 4.446059 7.108669 39.263672 -0.093016 -18.437775 30.661064 -5.166409 2.284802 -1.625062 -0.063730 0.237400 -0.041490 0.063640 
0.352940 17.069660 -0.556580 -1.457645 27.524899 4.659427 -15.239769 12.750547 3.511057 8.868729 -2.549262 -15.161020 -5.537658 2.630708 -3.012125 -0.395168 3.250437 3.492489 0.399870 0.412140 0.075730 18.052208 -11.511774 2.228420 -11.960486 0.917425 -19.664140 2.633504 -4.903765 21.819932 0.067056 -3.643097 2.983363 0.456940 0.279500 0.076400 -3.789087 -0.486755 -7.868341 6.074689 2.257129 15.281518 -4.561880 4.516844 17.558496 2.822877 2.250085 -9.584406 1.271752 -7.919613 35.992447 2.066100 -10.660580 -5.394180 -17.134805 -42.340850 4.243618 -17.494779 -51.085979 7.469314 25.821675 -39.051653 -8.652831 -3.834098 2.929996 -0.115820 0.199590 -0.187100 0.202210 11.645435 42.541652 4.557906 8.225011 39.829496 0.432456 -19.225017 28.449164 -5.334581 2.316798 -1.618126 -0.061800 0.240310 -0.044610 0.063930 
0.291350 17.071670 -0.537600 -1.186436 27.125599 5.271370 -15.238824 12.728751 3.492401 8.681414 -2.599085 -15.568626 -4.991030 2.544854 -3.049512 -0.416750 3.181131 3.513331 0.397580 0.411460 0.081460 18.053085 -11.476181 2.283157 -11.903210 0.829953 -18.671616 3.446372 -4.728234 19.062764 0.079454 -3.480593 3.055044 0.456630 0.279450 0.076650 -3.771034 -0.481411 -7.882455 5.857306 2.539426 15.017362 -4.486416 4.805807 17.682922 2.816482 1.998130 -9.680489 0.827848 -7.339330 36.571303 1.879900 -10.083970 -5.421250 -17.456639 -41.847954 4.410251 -18.509616 -50.659840 7.563502 26.214612 -37.919524 -8.738218 -3.835186 2.903133 -0.107920 0.202670 -0.182030 0.196770 11.996921 42.431578 4.658481 9.489280 40.311199 1.203379 -18.552482 27.735212 -5.078351 2.314396 -1.585503 -0.066400 0.246150 -0.040900 0.057930 
0.214420 17.082980 -0.501360 -0.994232 26.643129 5.867391 -15.240257 12.698704 3.441132 8.474118 -2.610145 -16.024818 -4.057122 2.440890 -2.979851 -0.446709 3.083579 3.543935 0.398020 0.409260 0.084620 18.057049 -11.425739 2.376601 -11.576646 0.829299 -17.737229 4.301955 -4.496953 16.146388 0.083992 -3.337902 3.118958 0.458310 0.277900 0.072170 -3.745397 -0.446518 -7.886472 5.566624 3.072152 14.771998 -4.417576 5.382689 17.811585 2.826774 1.863271 -9.794948 0.571756 -7.174282 36.909121 2.141230 -10.042260 -5.686720 -18.048920 -40.938958 4.612742 -20.310098 -50.375704 8.070974 27.679206 -38.260170 -9.462356 -3.811145 2.851522 -0.094370 0.196030 -0.178240 0.193800 12.556384 41.837656 4.966350 10.671238 40.336465 1.734912 -17.145894 28.652828 -4.677198 2.284368 -1.551782 -0.074260 0.254910 -0.037200 0.053150 
0.139720 17.102500 -0.459320 -0.951043 26.244685 6.342001 -15.223440 12.663170 3.366721 8.458293 -2.604996 -16.638318 -3.180900 2.394329 -2.456182 -0.460577 2.966842 3.578991 0.400350 0.413000 0.087840 18.076687 -11.389654 2.487654 -11.421805 0.839670 -16.942912 5.389339 -4.407709 13.771355 0.070407 -3.293336 3.148379 0.453080 0.268910 0.070130 -3.776324 -0.366642 -7.887738 5.569867 3.430591 14.504114 -4.527119 5.742949 17.775643 2.832656 1.846034 -9.942483 0.498098 -7.422499 37.082096 2.254430 -10.284660 -5.894190 -19.286245 -39.532300 4.966922 -22.664375 -49.755104 8.787808 28.809992 -41.201817 -10.437821 -3.757340 2.790999 -0.088700 0.186320 -0.169030 0.193950 13.754210 40.560517 5.500610 12.806290 40.415313 2.450046 -15.129562 31.395764 -4.149550 2.219778 -1.510096 -0.068130 0.254250 -0.042220 0.055020 
0.044440 17.112220 -0.414890 -1.315475 25.624374 6.968447 -15.214465 12.610389 3.302594 9.055517 -2.621535 -17.872814 -2.501022 2.397669 -1.630294 -0.477966 2.862561 3.596596 0.404580 0.417290 0.097570 18.092895 -11.320520 2.612250 -10.937289 1.020722 -16.720566 6.384250 -4.267905 11.719126 0.054675 -3.231231 3.177989 0.447170 0.250870 0.070620 -3.772082 -0.290787 -7.878734 5.574581 3.936544 14.167793 -4.158685 6.206542 17.249471 2.904714 1.853204 -10.058174 0.614892 -7.373185 36.893148 2.380110 -10.046290 -6.288080 -20.424295 -37.174749 5.331306 -26.196934 -48.233265 9.448005 27.102950 -45.600788 -10.554319 -3.677075 2.749565 -0.074550 0.173400 -0.153570 0.190640 14.761096 38.555995 5.876366 15.217024 39.661889 2.529165 -12.090737 37.218865 -3.343617 2.101719 -1.491815 -0.062580 0.247040 -0.048440 0.049460 
-0.046760 17.106780 -0.362960 -1.872172 24.886630 7.350363 -15.213869 12.594450 3.251026 9.866185 -2.568369 -18.704903 -1.576865 2.376898 -1.079099 -0.487671 2.799264 3.602673 0.402170 0.407460 0.117810 18.097644 -11.279481 2.692827 -10.304446 1.296872 -17.175031 7.407734 -4.387187 11.594079 0.044290 -3.219278 3.178927 0.434630 0.227740 0.068520 -3.744666 -0.233627 -7.853521 5.401573 4.272965 13.820458 -3.450832 6.403978 16.675522 2.928174 1.880326 -10.202468 0.823254 -7.110395 36.952031 2.159180 -9.415960 -6.385800 -21.143848 -34.689396 5.730516 -29.394356 -45.423493 8.898386 23.241979 -51.254237 -9.990028 -3.604886 2.760823 -0.057290 0.161310 -0.139540 0.179180 15.543008 36.556575 6.096990 18.753555 39.284573 2.900995 -8.158536 42.670171 -2.106330 2.006400 -1.483157 -0.063360 0.236070 -0.054040 0.034150 
-0.139260 17.104970 -0.311470 -2.289646 24.112006 7.486031 -15.215926 12.639916 3.179066 10.588489 -2.451804 -19.715676 -0.886280 2.490055 0.451120 -0.481194 2.728471 3.613395 0.374960 0.371600 0.107180 18.087161 -11.267830 2.787268 -9.557260 1.538650 -17.394504 8.224314 -4.454298 11.353343 0.041853 -3.201109 3.194431 0.399790 0.221500 0.065460 -3.706450 -0.211666 -7.842751 5.115051 4.701536 13.899588 -2.892295 6.754647 15.954607 2.827951 2.035178 -10.485485 1.169771 -7.135516 37.066604 2.479810 -9.305540 -5.967660 -22.714173 -32.737744 6.129383 -31.771322 -42.405468 7.591057 20.248983 -55.536571 -9.618890 -3.566798 2.798530 -0.047190 0.151540 -0.134780 0.172540 17.347082 34.887495 6.608911 21.735575 38.070193 2.763076 -2.194787 46.036128 0.047505 1.980114 -1.515495 -0.062920 0.223080 -0.050120 0.032620 
-0.228990 17.085700 -0.256350 -2.861469 22.997049 7.393654 -15.201594 12.708186 3.076492 11.270735 -2.270242 -20.594092 0.334007 2.558020 2.209055 -0.476934 2.653470 3.624440 0.364220 0.356410 0.093960 18.095859 -11.304329 2.849253 -8.680747 1.832229 -17.964566 8.880813 -4.697788 12.454134 0.036600 -3.227427 3.185796 0.379260 0.220050 0.065670 -3.723781 -0.145529 -7.784402 5.039371 4.989967 13.882946 -2.475195 6.963684 15.121425 2.621399 1.953693 -10.309808 1.095755 -7.046543 37.129813 3.247370 -9.468140 -5.877600 -23.834149 -30.254668 6.114616 -34.198999 -39.169779 6.428033 14.633795 -58.918406 -7.655570 -3.552392 2.895526 -0.041260 0.139840 -0.130530 0.175390 18.909429 32.727284 6.698007 25.124083 37.054698 3.219133 4.382136 48.566032 2.592400 1.987125 -1.562879 -0.056370 0.213280 -0.050370 0.039510 
